<?xml version="1.0" encoding="utf-8"?>
<!-- Generator: Adobe Illustrator 24.0.0, SVG Export Plug-In . SVG Version: 6.00 Build 0)  -->
<svg version="1.1" id="图层_1" xmlns="http://www.w3.org/2000/svg" xmlns:xlink="http://www.w3.org/1999/xlink" x="0px" y="0px"
	 viewBox="0 0 900 600" style="enable-background:new 0 0 1200 800;" xml:space="preserve">
<style type="text/css">
	.st0{fill:#8966FD;}
	.st1{fill:#C6B5FF;}
	.st2{fill:#FFFFFF;}
</style>
<path class="st0" d="M836.2,289.2c-1.3,4.7-2.4,9.5-3.9,14.1c-3.8,11.8-15.5,20.4-27.7,20.4c-18.2,0-36.3,0-54.7,0
	c0,9.9,0,18.4,0,27.4c23.1,0,46.2,0,70,0c-0.1,17.6-2.3,33.9-15.7,45.9c-3.4,3-8.7,5.1-13.2,5.3c-13.5,0.7-27.1,0.2-41.3,0.2
	c0,3.4,0,5.6,0,7.8c0,10-0.3,20.1,0.1,30.1c0.6,16.3-7.4,27.1-20.9,33.9c-10.8,5.4-22.4,7.2-34.9,5.8c0-1.7,0-3.3,0-4.9
	c0-55-0.2-110.1,0.1-165.1c0.1-20.4,15.5-37.8,36.4-37.7c35.2,0.2,70.5,0.1,105.7,0.1C836.2,278.1,836.2,283.6,836.2,289.2z"/>
<path class="st1" d="M374,499.2c-5.1-1.5-10.3-2.9-15.4-4.5c-18.4-5.7-35.1-14.4-48.7-28.7c-3.5-3.7-7-7.5-10.6-11.2
	c-3-3-4.1-6.5-3-11.1c6.8,1.1,11.9-2.8,17.1-6.6c14.2-10.2,33.2-3.7,42.2,11c1.7,2.7,2.7,5.8,4.3,8.6c1.7,3,3.8,1.5,5.7,0.3
	c7.6-4.5,15.7-5.6,23.9-2.4c4.1,1.6,8.2,4,11.4,7c13.7,13.3,29.5,20.3,48.5,18.6c0.3,0,0.6,0.2,1.9,0.8c-1.3,1.3-2.2,2.7-3.4,3.4
	c-10.4,5.8-21.3,10.2-33,12.5c-3.4,0.7-6.8,1.5-10.2,2.2C394.5,499.2,384.2,499.2,374,499.2z"/>
<path class="st0" d="M463.1,437.4c8.5,4.9,14.2,12.6,19.5,20.6c1.8,2.8,3.5,2.1,4.5-0.5c3.8-10.7,5.1-21.7,2.5-32.8
	c-4.3-18.6-14.1-33.5-30.1-43.8c-1.7-1.1-3.5-4.8-2.9-6.3c0.9-2,3.9-4,6.1-4.2c11.5-0.9,20.2,5.8,24.7,18.3c1.2,3.4,2,7.6,6.6,7.1
	c4.7-0.6,4.8-4.8,5.1-8.7c2.4-34.7-25.3-57.8-56.8-54.1c-22.8,2.7-40.8,15.1-57.5,29.9c6.2,16.9,17.3,28.5,33.4,35
	c4.4,1.8,8.3,4.2,8.1,9.7c-0.2,5.1-3.9,7.3-8.2,9.1c-27.8,11.5-62.9,1.3-80.3-23.6c-3.4-4.9-5.4-5.3-10.2-1.8
	c-7.6,5.5-11.1,14.2-16,21.9c-3.2,5.1-6.5,10.1-9.9,15c-2.6,3.8-6.8,5.5-10.5,3.4c-3.3-1.9-7.8-5.8-7.8-8.9c0-15.3-5-29.6-7.3-44.4
	c-2.3-14.9-0.3-29.1,4.9-42.9c11.7-31.1,32.2-53.8,61.6-68.2c2.3-1.1,4.4-3.3,5.9-5.4c10.3-14.4,21.3-27.9,37.5-35.8
	c6.4-3.2,13.1-5.2,20.2-4.9c8.3,0.4,11.8,7.2,7.4,14.4c-2.7,4.4-5.7,8.7-8.3,13.2c-3,5.2-1.7,7.7,4.2,8.6c17.4,2.7,33.6,9,48.5,18.5
	c25,16,41.7,38.6,50,67.3c8.7,29.9,6.3,59.4-6.2,87.8c-3.6,8.3-6.3,16.6-6.8,25.8c-0.3,5.4-2.3,10.8-4.1,16
	c-1.1,3.3-3.8,5.2-7.6,4.6c-3.8-0.5-5-3.3-5.4-6.5c-2.1-14-9.4-23.7-22.4-28.8c-3.3-1.3-5.8-4-4.5-7.5c0.9-2.4,3.8-5.1,6.2-5.6
	c3.9-0.8,8.2-0.2,12.3,0.3c5.1,0.5,10.2,1.9,14.7-1.9c0.6-0.5,1.8-0.5,2.7-0.7c0.5,4.9-1.3,7.4-6.1,8c-3.9,0.5-8,0.2-12,0.3
	c-1.9,0.1-3.8,0.4-5.7,0.6C463.2,436.3,463.1,436.8,463.1,437.4z M325.9,365.1c5.9,0,10.5-4.9,10.6-11.3c0-5.6-2.9-8.5-8.7-8.5
	c-5.9,0-10.5,5-10.6,11.2C317.3,362.2,320.2,365.1,325.9,365.1z"/>
<path class="st0" d="M532.6,480.1c0-2,0-3.8,0-5.6c0-54.5-0.2-109.1,0.1-163.6c0.1-19.6,10.9-33.1,29.4-38.3
	c0.6-0.2,1.3-0.2,1.9-0.2c36.7,0,73.3,0,110,0c2.8,14.2-1.1,38.8-15,46.1c-4.9,2.6-10.5,4.8-15.9,4.9c-18,0.6-36,0.2-54.4,0.2
	c0,9.8,0,18.4,0,27.5c23.1,0,46.2,0,69.9,0c-0.2,17.1-2.1,33-14.8,44.8c-3.6,3.4-9.4,5.9-14.3,6.2c-13.5,0.8-27,0.3-41.2,0.3
	c0,7.5,0,13.6,0,19.8c0,6.2-0.4,12.5,0.1,18.7c1.2,16-10.1,28.8-22.3,34C555.6,479.6,544.6,481.5,532.6,480.1z"/>
<path class="st2" d="M325.9,365.1c-5.7,0-8.7-2.9-8.7-8.5c0-6.3,4.7-11.2,10.6-11.2c5.7,0,8.7,2.9,8.7,8.5
	C336.5,360.2,331.8,365.1,325.9,365.1z"/>
</svg>
